<svg width="15" height="16" viewBox="0 0 15 16" fill="none" xmlns="http://www.w3.org/2000/svg">
<path d="M13.6904 13.1185L13.1626 6.78522C13.0942 5.96459 12.4082 5.33337 11.5848 5.33337H10.6667H4.33333H3.41521C2.59173 5.33337 1.90573 5.96459 1.83734 6.78522L1.30956 13.1185C1.23264 14.0416 1.96111 14.8334 2.88743 14.8334H12.1126C13.0389 14.8334 13.7674 14.0416 13.6904 13.1185Z" stroke="white" stroke-opacity="0.9" stroke-width="1.5" stroke-linecap="round" stroke-linejoin="round"/>
<path d="M10.6666 8.5V5.33333V4.54167C10.6666 3.70181 10.333 2.89636 9.73913 2.30249C9.1453 1.70863 8.33986 1.375 7.49998 1.375C6.6601 1.375 5.85467 1.70863 5.26081 2.30249C4.66694 2.89636 4.33331 3.70181 4.33331 4.54167V5.33333V8.5" stroke="white" stroke-opacity="0.9" stroke-width="1.5" stroke-linecap="round" stroke-linejoin="round"/>
</svg>
